# xmcd CD database file
#
# Track frame offsets:
#	182
#	9755
#	20557
#	31165
#	47085
#	57840
#	70750
#	79565
#	92372
#	106167
#	121332
#	132022
#	142855
#	153447
#
# Disc length: 2220 seconds
#
# Revision: 0
# Processed by: cddbd v1.4PL0 Copyright (c) Steve Scherf et al.
# Submitted via: CDex 1.50beta9
#
DISCID=9a08aa0e
DTITLE=Philomena Begley - In Harmony
DYEAR=1900
DGENRE=Country
TTITLE0=No Love Left
TTITLE1=Just Between You And Me
TTITLE2=I'm Wasting Your Time You're Wasting Mine
TTITLE3='Till A Tear Becomes A Rose
TTITLE4=Always, Always
TTITLE5=We're Strangers Again
TTITLE6=We'll Get Ahead Someday
TTITLE7=All You've Got To Do Is Dream
TTITLE8=Daisy Chain
TTITLE9=Don't Believe Me I'm Lying
TTITLE10=You Can't Break The Chains Of Love
TTITLE11=Let's Pretend We're Not Married Tonihgt
TTITLE12=How Can I Help You Forgive Me
TTITLE13=Somewhere Between
EXTD=
EXTT0=
EXTT1=
EXTT2=
EXTT3=
EXTT4=
EXTT5=
EXTT6=
EXTT7=
EXTT8=
EXTT9=
EXTT10=
EXTT11=
EXTT12=
EXTT13=
PLAYORDER=
